<svg width="17" height="18" viewBox="0 0 17 18" fill="none" xmlns="http://www.w3.org/2000/svg">
<path d="M14.8574 0.257986C15.1313 0.243427 15.4264 0.228191 15.6738 0.283376C15.8131 0.314437 15.9057 0.365484 15.9853 0.487478C16.0366 0.767432 16.0822 1.04444 16.0927 1.32927C16.1152 1.93315 16.1102 2.54152 16.1045 3.14861C16.1018 3.42395 16.0986 3.69948 16.0986 3.97381V9.20428C16.0988 9.37596 16.1032 9.66491 16.1094 10.0168C16.1306 11.2489 16.1655 13.2526 16.0547 13.6945C15.9752 14.011 15.8134 14.1569 15.539 14.3185C15.294 14.3496 15.0384 14.3559 14.7851 14.3615C14.6526 14.3644 14.5203 14.3667 14.3906 14.3732C13.1693 14.4353 11.8796 14.5608 10.7578 15.0793C10.4575 15.2181 10.1565 15.3814 9.89255 15.5822C9.75725 15.6851 9.60543 15.8281 9.44431 15.9806C9.04261 16.3609 8.57843 16.7999 8.1406 16.8244C7.63585 16.8522 7.15742 16.4201 6.7158 16.0217C6.50573 15.8322 6.3034 15.6508 6.1113 15.5295C5.64531 15.2353 5.11828 15.0081 4.59568 14.8371C3.73364 14.5552 2.8203 14.4104 1.91599 14.3566C1.77945 14.3484 1.63846 14.3493 1.49705 14.3498C1.2347 14.3507 0.969066 14.3517 0.721655 14.297C0.506148 14.2491 0.367093 14.1398 0.205053 13.9963C0.086388 13.7143 0.0497429 13.3656 0.0351315 13.0617C0.00898091 12.5181 0.0156123 11.968 0.0224362 11.4201C0.0254892 11.177 0.0281498 10.9341 0.0282956 10.6926L0.0322019 6.06658L0.0282956 2.5656C0.0281921 2.41291 0.0213463 2.24697 0.0146237 2.07537C-0.00350842 1.61037 -0.0230566 1.10372 0.0781003 0.707205C0.13374 0.489322 0.259948 0.392932 0.442358 0.276541C2.44915 0.146448 4.64101 0.563155 6.40427 1.54412C6.98996 1.86994 7.51748 2.26901 8.05076 2.67205C8.35053 2.44849 8.65309 2.22485 8.96189 2.01385C10.6218 0.879587 12.5984 0.319602 14.6006 0.269705C14.6823 0.267664 14.7689 0.262686 14.8574 0.257986ZM14.626 1.82927C14.3829 1.83128 14.1254 1.81589 13.8847 1.84783C12.2376 1.99674 10.1243 2.59931 9.00583 3.91131C8.95847 3.96736 8.91321 4.02547 8.86912 4.08416L8.86619 14.3849C9.04906 14.252 9.23023 14.1145 9.41599 13.9855C10.9548 13.0663 12.8799 12.9085 14.6338 12.7824C14.6339 9.13367 14.6824 5.47732 14.626 1.82927ZM1.50095 1.83123C1.4632 3.35544 1.4715 4.88582 1.47947 6.41326C1.48276 7.03933 1.48621 7.66513 1.4863 8.29021C1.4864 8.74957 1.48045 9.21241 1.47458 9.67595V9.67986C1.46165 10.7059 1.44891 11.7378 1.49998 12.7521C3.52641 12.9266 5.56099 13.1267 7.249 14.3654C7.23902 10.9469 7.25777 7.52856 7.30564 4.11052C5.97861 2.70959 3.90215 1.88205 1.98728 1.8283C1.82524 1.82483 1.66289 1.82595 1.50095 1.83123Z" fill="#010101"/>
<path d="M14.8574 0.257986L14.8704 0.501998L14.8704 0.501998L14.8574 0.257986ZM15.6738 0.283376L15.6206 0.521873L15.6206 0.521879L15.6738 0.283376ZM15.9853 0.487478L16.2257 0.443474L16.2168 0.395079L16.1899 0.353884L15.9853 0.487478ZM16.0927 1.32927L15.8486 1.33832L15.8486 1.33836L16.0927 1.32927ZM16.1045 3.14861L16.3488 3.15094V3.15093L16.1045 3.14861ZM16.0986 9.20428H15.8543V9.20455L16.0986 9.20428ZM16.1094 10.0168L16.3537 10.0126V10.0125L16.1094 10.0168ZM16.0547 13.6945L16.2917 13.754L16.2917 13.754L16.0547 13.6945ZM15.539 14.3185L15.5698 14.5609L15.6197 14.5546L15.6631 14.5291L15.539 14.3185ZM14.7851 14.3615L14.7797 14.1172H14.7797L14.7851 14.3615ZM14.3906 14.3732L14.3783 14.1292L14.3782 14.1292L14.3906 14.3732ZM10.7578 15.0793L10.8603 15.3011L10.8603 15.3011L10.7578 15.0793ZM9.89255 15.5822L10.0405 15.7767L10.0405 15.7767L9.89255 15.5822ZM9.44431 15.9806L9.27633 15.8032L9.27632 15.8032L9.44431 15.9806ZM8.1406 16.8244L8.15405 17.0684L8.15422 17.0684L8.1406 16.8244ZM6.7158 16.0217L6.87949 15.8402L6.87947 15.8402L6.7158 16.0217ZM6.1113 15.5295L6.24179 15.3229L6.24175 15.3228L6.1113 15.5295ZM4.59568 14.8371L4.67169 14.6049L4.67163 14.6048L4.59568 14.8371ZM1.91599 14.3566L1.90132 14.6005L1.90149 14.6005L1.91599 14.3566ZM1.49705 14.3498L1.49622 14.1054H1.49622L1.49705 14.3498ZM0.721655 14.297L0.668615 14.5356L0.66899 14.5357L0.721655 14.297ZM0.205053 13.9963L-0.0201648 14.0911L0.00141085 14.1423L0.0430446 14.1792L0.205053 13.9963ZM0.0351315 13.0617L0.279206 13.05L0.279206 13.05L0.0351315 13.0617ZM0.0224362 11.4201L-0.221901 11.417L-0.221901 11.4171L0.0224362 11.4201ZM0.0282956 10.6926L-0.216061 10.6923L-0.216061 10.6924L0.0282956 10.6926ZM0.0322019 6.06658L0.276559 6.06679L0.276558 6.06631L0.0322019 6.06658ZM0.0282956 2.5656L-0.216061 2.56577L-0.216061 2.56588L0.0282956 2.5656ZM0.0146237 2.07537L-0.229547 2.08489L-0.229545 2.08493L0.0146237 2.07537ZM0.0781003 0.707205L-0.158658 0.646745L-0.158672 0.6468L0.0781003 0.707205ZM0.442358 0.276541L0.426551 0.032696L0.36387 0.0367593L0.310919 0.0705461L0.442358 0.276541ZM6.40427 1.54412L6.28548 1.75765L6.28548 1.75766L6.40427 1.54412ZM8.05076 2.67205L7.90342 2.86699L8.04978 2.9776L8.19684 2.86793L8.05076 2.67205ZM8.96189 2.01385L9.09975 2.2156L9.09975 2.2156L8.96189 2.01385ZM14.6006 0.269705L14.6066 0.513985L14.6067 0.513985L14.6006 0.269705ZM14.626 1.82927L14.8703 1.82549L14.8665 1.58293L14.6239 1.58493L14.626 1.82927ZM13.8847 1.84783L13.9068 2.09141L13.9169 2.09006L13.8847 1.84783ZM9.00583 3.91131L8.81988 3.75278L8.81918 3.75361L9.00583 3.91131ZM8.86912 4.08416L8.67375 3.93739L8.62478 4.00257L8.62476 4.08409L8.86912 4.08416ZM8.86619 14.3849L8.62183 14.3849L8.62169 14.8647L9.00986 14.5826L8.86619 14.3849ZM9.41599 13.9855L9.29068 13.7757L9.28348 13.78L9.2766 13.7848L9.41599 13.9855ZM14.6338 12.7824L14.6513 13.0261L14.8781 13.0098L14.8781 12.7824L14.6338 12.7824ZM1.50095 1.83123L1.49299 1.587L1.26238 1.59452L1.25667 1.82518L1.50095 1.83123ZM1.47947 6.41326L1.23511 6.41453V6.41454L1.47947 6.41326ZM1.4863 8.29021L1.24195 8.29025V8.29026L1.4863 8.29021ZM1.47458 9.67595L1.23023 9.67286V9.67595H1.47458ZM1.47458 9.67986L1.71894 9.68294V9.67986H1.47458ZM1.49998 12.7521L1.25593 12.7644L1.26665 12.9773L1.47902 12.9956L1.49998 12.7521ZM7.249 14.3654L7.10443 14.5624L7.49477 14.8489L7.49335 14.3647L7.249 14.3654ZM7.30564 4.11052L7.54997 4.11395L7.55136 4.01461L7.48304 3.94248L7.30564 4.11052ZM1.98728 1.8283L1.99414 1.58403L1.99251 1.584L1.98728 1.8283ZM14.8574 0.257986L14.8704 0.501998C15.1529 0.48698 15.4122 0.475392 15.6206 0.521873L15.6738 0.283376L15.727 0.0448795C15.4405 -0.0190107 15.1097 -0.000124961 14.8444 0.0139739L14.8574 0.257986ZM15.6738 0.283376L15.6206 0.521879C15.6745 0.533877 15.703 0.546273 15.7215 0.557938C15.738 0.568357 15.7571 0.58483 15.7807 0.621072L15.9853 0.487478L16.1899 0.353884C16.1339 0.268133 16.0669 0.198084 15.9824 0.144716C15.8999 0.0925935 15.8125 0.0639362 15.727 0.0448743L15.6738 0.283376ZM15.9853 0.487478L15.745 0.531482C15.796 0.810141 15.8387 1.07236 15.8486 1.33832L16.0927 1.32927L16.3369 1.32023C16.3257 1.01652 16.2772 0.724723 16.2257 0.443474L15.9853 0.487478ZM16.0927 1.32927L15.8486 1.33836C15.8708 1.93568 15.8659 2.53854 15.8601 3.14629L16.1045 3.14861L16.3488 3.15093C16.3546 2.5445 16.3597 1.93061 16.3369 1.32019L16.0927 1.32927ZM16.1045 3.14861L15.8601 3.14628C15.8575 3.42084 15.8543 3.69799 15.8543 3.97381H16.0986H16.343C16.343 3.70098 16.3462 3.42706 16.3488 3.15094L16.1045 3.14861ZM16.0986 3.97381H15.8543V9.20428H16.0986H16.343V3.97381H16.0986ZM16.0986 9.20428L15.8543 9.20455C15.8544 9.37862 15.8589 9.66972 15.865 10.021L16.1094 10.0168L16.3537 10.0125C16.3476 9.66009 16.3432 9.37329 16.343 9.204L16.0986 9.20428ZM16.1094 10.0168L15.865 10.021C15.8757 10.6376 15.8897 11.4439 15.8872 12.1511C15.886 12.5048 15.8806 12.8314 15.8689 13.0958C15.8567 13.3685 15.8384 13.5522 15.8177 13.6351L16.0547 13.6945L16.2917 13.754C16.3263 13.6158 16.3453 13.3834 16.3571 13.1176C16.3693 12.8435 16.3747 12.5093 16.3759 12.1528C16.3784 11.4397 16.3643 10.6281 16.3537 10.0126L16.1094 10.0168ZM16.0547 13.6945L15.8177 13.635C15.786 13.761 15.7419 13.8402 15.6865 13.9032C15.6274 13.9702 15.5448 14.0315 15.415 14.108L15.539 14.3185L15.6631 14.5291C15.8076 14.4439 15.943 14.3514 16.0534 14.226C16.1673 14.0965 16.2438 13.9445 16.2917 13.754L16.0547 13.6945ZM15.539 14.3185L15.5083 14.0761C15.2779 14.1054 15.0348 14.1116 14.7797 14.1172L14.7851 14.3615L14.7905 14.6058C15.0419 14.6003 15.3101 14.5939 15.5698 14.5609L15.539 14.3185ZM14.7851 14.3615L14.7797 14.1172C14.6491 14.1201 14.5124 14.1224 14.3783 14.1292L14.3906 14.3732L14.4029 14.6173C14.5282 14.6109 14.656 14.6088 14.7905 14.6058L14.7851 14.3615ZM14.3906 14.3732L14.3782 14.1292C13.1551 14.1913 11.8235 14.3175 10.6553 14.8575L10.7578 15.0793L10.8603 15.3011C11.9356 14.8041 13.1835 14.6792 14.403 14.6173L14.3906 14.3732ZM10.7578 15.0793L10.6553 14.8575C10.3463 15.0002 10.0279 15.1721 9.74457 15.3878L9.89255 15.5822L10.0405 15.7767C10.285 15.5906 10.5687 15.4359 10.8603 15.3011L10.7578 15.0793ZM9.89255 15.5822L9.7446 15.3877C9.59671 15.5002 9.43476 15.6532 9.27633 15.8032L9.44431 15.9806L9.61229 16.1581C9.77611 16.003 9.91779 15.87 10.0405 15.7767L9.89255 15.5822ZM9.44431 15.9806L9.27632 15.8032C9.07302 15.9957 8.86825 16.1889 8.6625 16.3382C8.45302 16.4902 8.27461 16.5722 8.12698 16.5804L8.1406 16.8244L8.15422 17.0684C8.44442 17.0522 8.71701 16.9024 8.94951 16.7337C9.18573 16.5623 9.4139 16.3459 9.61231 16.1581L9.44431 15.9806ZM8.1406 16.8244L8.12715 16.5804C7.9493 16.5902 7.75616 16.5197 7.53752 16.3779C7.31893 16.2361 7.1036 16.0424 6.87949 15.8402L6.7158 16.0217L6.5521 16.2031C6.76962 16.3993 7.01431 16.621 7.27152 16.7879C7.52869 16.9547 7.82714 17.0864 8.15405 17.0684L8.1406 16.8244ZM6.7158 16.0217L6.87947 15.8402C6.6736 15.6545 6.45506 15.4576 6.24179 15.3229L6.1113 15.5295L5.98081 15.7361C6.15174 15.844 6.33786 16.0098 6.55212 16.2031L6.7158 16.0217ZM6.1113 15.5295L6.24175 15.3228C5.7544 15.0152 5.20784 14.7803 4.67169 14.6049L4.59568 14.8371L4.51967 15.0693C5.02871 15.2359 5.53622 15.4554 5.98085 15.7361L6.1113 15.5295ZM4.59568 14.8371L4.67163 14.6048C3.78516 14.3149 2.85034 14.1674 1.93049 14.1127L1.91599 14.3566L1.90149 14.6005C2.79026 14.6534 3.68211 14.7954 4.51973 15.0693L4.59568 14.8371ZM1.91599 14.3566L1.93067 14.1127C1.7848 14.1039 1.63539 14.105 1.49622 14.1054L1.49705 14.3498L1.49787 14.5941C1.64152 14.5937 1.7741 14.5929 1.90132 14.6005L1.91599 14.3566ZM1.49705 14.3498L1.49622 14.1054C1.22825 14.1063 0.990585 14.1062 0.77432 14.0584L0.721655 14.297L0.66899 14.5357C0.947547 14.5971 1.24115 14.595 1.49787 14.5941L1.49705 14.3498ZM0.721655 14.297L0.774695 14.0585C0.623413 14.0249 0.523713 13.9521 0.367062 13.8133L0.205053 13.9963L0.0430446 14.1792C0.210473 14.3275 0.388884 14.4734 0.668615 14.5356L0.721655 14.297ZM0.205053 13.9963L0.430272 13.9015C0.3294 13.6618 0.293635 13.3501 0.279206 13.05L0.0351315 13.0617L-0.208943 13.0734C-0.19415 13.3811 -0.156624 13.7669 -0.0201648 14.0911L0.205053 13.9963ZM0.0351315 13.0617L0.279206 13.05C0.253469 12.515 0.259935 11.9723 0.266774 11.4231L0.0224362 11.4201L-0.221901 11.4171C-0.22871 11.9638 -0.235507 12.5213 -0.208943 13.0734L0.0351315 13.0617ZM0.0224362 11.4201L0.266773 11.4232C0.269828 11.18 0.272505 10.9358 0.272652 10.6927L0.0282956 10.6926L-0.216061 10.6924C-0.216206 10.9324 -0.218849 11.1741 -0.221901 11.417L0.0224362 11.4201ZM0.0282956 10.6926L0.272652 10.6928L0.276558 6.06679L0.0322019 6.06658L-0.212154 6.06637L-0.216061 10.6923L0.0282956 10.6926ZM0.0322019 6.06658L0.276558 6.06631L0.272652 2.56533L0.0282956 2.5656L-0.216061 2.56588L-0.212154 6.06685L0.0322019 6.06658ZM0.0282956 2.5656L0.272652 2.56544C0.272545 2.407 0.265451 2.23575 0.258793 2.0658L0.0146237 2.07537L-0.229545 2.08493C-0.222758 2.25818 -0.21616 2.41881 -0.216061 2.56577L0.0282956 2.5656ZM0.0146237 2.07537L0.258795 2.06585C0.240234 1.58986 0.224325 1.12254 0.314873 0.767609L0.0781003 0.707205L-0.158672 0.6468C-0.270438 1.0849 -0.24725 1.63089 -0.229547 2.08489L0.0146237 2.07537ZM0.0781003 0.707205L0.314859 0.767665C0.346166 0.645069 0.401812 0.592274 0.573797 0.482535L0.442358 0.276541L0.310919 0.0705461C0.118083 0.193589 -0.0786855 0.333575 -0.158658 0.646745L0.0781003 0.707205ZM0.442358 0.276541L0.458166 0.520385C2.42432 0.392927 4.56835 0.802361 6.28548 1.75765L6.40427 1.54412L6.52307 1.33058C4.71366 0.323949 2.47398 -0.100031 0.426551 0.032696L0.442358 0.276541ZM6.40427 1.54412L6.28548 1.75766C6.85376 2.07379 7.36785 2.46222 7.90342 2.86699L8.05076 2.67205L8.19809 2.4771C7.6671 2.07581 7.12615 1.66608 6.52306 1.33058L6.40427 1.54412ZM8.05076 2.67205L8.19684 2.86793C8.4965 2.64446 8.79551 2.42349 9.09975 2.2156L8.96189 2.01385L8.82403 1.81209C8.51068 2.02621 8.20457 2.25252 7.90468 2.47616L8.05076 2.67205ZM8.96189 2.01385L9.09975 2.2156C10.7158 1.11134 12.6451 0.562869 14.6066 0.513985L14.6006 0.269705L14.5945 0.0254241C12.5516 0.0763351 10.5278 0.647838 8.82403 1.81209L8.96189 2.01385ZM14.6006 0.269705L14.6067 0.513985C14.6927 0.511836 14.7838 0.506599 14.8704 0.501998L14.8574 0.257986L14.8444 0.0139736C14.7541 0.0187737 14.6718 0.0234923 14.5945 0.0254244L14.6006 0.269705ZM14.626 1.82927L14.6239 1.58493C14.4044 1.58674 14.1132 1.57101 13.8526 1.6056L13.8847 1.84783L13.9169 2.09006C14.1376 2.06077 14.3613 2.07582 14.628 2.07362L14.626 1.82927ZM13.8847 1.84783L13.8627 1.60447C13.0209 1.68058 12.0583 1.87256 11.16 2.21509C10.2636 2.55688 9.4149 3.0548 8.81988 3.75278L9.00583 3.91131L9.19179 4.06983C9.71523 3.45582 10.4825 2.99645 11.3341 2.67173C12.1838 2.34775 13.1015 2.16399 13.9067 2.09119L13.8847 1.84783ZM9.00583 3.91131L8.81918 3.75361C8.76776 3.81447 8.71945 3.87655 8.67375 3.93739L8.86912 4.08416L9.06448 4.23093C9.10697 4.17438 9.14919 4.12026 9.19249 4.06901L9.00583 3.91131ZM8.86912 4.08416L8.62476 4.08409L8.62183 14.3849L8.86619 14.3849L9.11054 14.385L9.11347 4.08423L8.86912 4.08416ZM8.86619 14.3849L9.00986 14.5826C9.19847 14.4455 9.3722 14.3135 9.55539 14.1862L9.41599 13.9855L9.2766 13.7848C9.08827 13.9156 8.89965 14.0585 8.72251 14.1873L8.86619 14.3849ZM9.41599 13.9855L9.54131 14.1953C11.0221 13.3107 12.887 13.153 14.6513 13.0261L14.6338 12.7824L14.6162 12.5387C12.8728 12.664 10.8875 12.8218 9.29068 13.7757L9.41599 13.9855ZM14.6338 12.7824L14.8781 12.7824C14.8782 9.13817 14.9268 5.4759 14.8703 1.82549L14.626 1.82927L14.3816 1.83306C14.4381 5.47874 14.3895 9.12918 14.3894 12.7824L14.6338 12.7824ZM1.50095 1.83123L1.25667 1.82518C1.21881 3.35368 1.22715 4.88777 1.23511 6.41453L1.47947 6.41326L1.72382 6.41198C1.71585 4.88388 1.70759 3.3572 1.74523 1.83728L1.50095 1.83123ZM1.47947 6.41326L1.23511 6.41454C1.23841 7.04079 1.24185 7.66592 1.24195 8.29025L1.4863 8.29021L1.73066 8.29017C1.73056 7.66435 1.72711 7.03788 1.72382 6.41197L1.47947 6.41326ZM1.4863 8.29021L1.24195 8.29026C1.24204 8.74777 1.23612 9.209 1.23025 9.67286L1.47458 9.67595L1.71892 9.67905C1.72479 9.21583 1.73076 8.75137 1.73066 8.29016L1.4863 8.29021ZM1.47458 9.67595H1.23023V9.67986H1.47458H1.71894V9.67595H1.47458ZM1.47458 9.67986L1.23025 9.67678C1.21733 10.7015 1.20441 11.7411 1.25593 12.7644L1.49998 12.7521L1.74402 12.7398C1.69341 11.7345 1.70597 10.7103 1.71892 9.68294L1.47458 9.67986ZM1.49998 12.7521L1.47902 12.9956C3.5149 13.1709 5.47983 13.3702 7.10443 14.5624L7.249 14.3654L7.39357 14.1684C5.64215 12.8832 3.53792 12.6823 1.52094 12.5087L1.49998 12.7521ZM7.249 14.3654L7.49335 14.3647C7.48338 10.9475 7.50212 7.5306 7.54997 4.11395L7.30564 4.11052L7.06131 4.1071C7.01342 7.52653 6.99466 10.9462 7.00464 14.3661L7.249 14.3654ZM7.30564 4.11052L7.48304 3.94248C6.10627 2.48903 3.96567 1.63938 1.99414 1.58404L1.98728 1.8283L1.98042 2.07256C3.83862 2.12472 5.85096 2.93015 7.12824 4.27857L7.30564 4.11052ZM1.98728 1.8283L1.99251 1.584C1.82587 1.58043 1.65911 1.58159 1.49299 1.587L1.50095 1.83123L1.50891 2.07545C1.66667 2.07031 1.82462 2.06923 1.98205 2.0726L1.98728 1.8283Z" fill="#010101"/>
</svg>
